<?xml version="1.0" encoding="UTF-8" standalone="no"?>
<svg width="213.36mm" height="128.5mm" viewBox="0 0 630 467" preserveAspectRatio="none" version="1.1" xmlns="http://www.w3.org/2000/svg" xmlns:xlink="http://www.w3.org/1999/xlink" xml:space="preserve" style="fill-rule:evenodd;clip-rule:evenodd;stroke-linecap:round;stroke-linejoin:round;stroke-miterlimit:1.5;">
    <rect x="0" y="0" width="630" height="467" fill="#15181e"/>
    <g id="Rectangles">
        <g id="Function-Labels">
            <path d="M82,61.291L82,65.764C82,66.998 80.998,68 79.764,68L63.236,68C62.002,68 61,66.998 61,65.764L61,61.291C61,60.057 62.002,59.055 63.236,59.055L79.764,59.055C80.998,59.055 82,60.057 82,61.291Z" style="fill:rgb(58,61,67);stroke:rgb(58,61,67);stroke-width:0.52px;"/>
            <path d="M624.201,61.291L624.201,65.764C624.201,66.998 623.199,68 621.965,68L605.437,68C604.203,68 603.201,66.998 603.201,65.764L603.201,61.291C603.201,60.057 604.203,59.055 605.437,59.055L621.965,59.055C623.199,59.055 624.201,60.057 624.201,61.291Z" style="fill:rgb(58,61,67);stroke:rgb(58,61,67);stroke-width:0.52px;"/>
            <path d="M83.476,239.76L83.476,244.232C83.476,245.466 82.474,246.469 81.24,246.469L53.236,246.469C52.002,246.469 51,245.466 51,244.232L51,239.76C51,238.526 52.002,237.524 53.236,237.524L81.24,237.524C82.474,237.524 83.476,238.526 83.476,239.76Z" style="fill:rgb(58,61,67);stroke:rgb(58,61,67);stroke-width:0.52px;"/>
            <path d="M167.476,314.236L167.476,318.709C167.476,319.943 166.474,320.945 165.24,320.945L158.263,320.945C157.028,320.945 156.026,319.943 156.026,318.709L156.026,314.236C156.026,313.002 157.028,312 158.263,312L165.24,312C166.474,312 167.476,313.002 167.476,314.236Z" style="fill:rgb(58,61,67);stroke:rgb(58,61,67);stroke-width:0.52px;"/>

        </g>
        <path d="M624.094,60.612L624.094,160.845C624.094,161.704 623.397,162.402 622.538,162.402L547.817,162.402C546.957,162.402 546.26,161.704 546.26,160.845L546.26,60.612C546.26,59.753 546.957,59.055 547.817,59.055L622.538,59.055C623.397,59.055 624.094,59.753 624.094,60.612Z" style="fill:none;stroke:rgb(232,230,222);stroke-width:0.52px;"/>
        <path d="M624.094,247.891L624.094,361.421C624.094,362.281 623.397,362.978 622.538,362.978L547.817,362.978C546.957,362.978 546.26,362.281 546.26,361.421L546.26,247.891C546.26,247.032 546.957,246.335 547.817,246.335L622.538,246.335C623.397,246.335 624.094,247.032 624.094,247.891Z" style="fill:none;stroke:rgb(232,230,222);stroke-width:0.52px;"/>
        <path d="M624.094,365.436L624.094,443.409C624.094,444.264 623.401,444.958 622.546,444.958L503.517,444.958C502.662,444.958 501.969,444.264 501.969,443.409L501.969,365.436C501.969,364.581 502.662,363.887 503.517,363.887L622.546,363.887C623.401,363.887 624.094,364.581 624.094,365.436Z" style="fill:rgb(58,61,67);stroke:rgb(58,61,67);stroke-width:0.52px;"/>
        <path d="M245.831,313.653L245.831,441.017C245.831,441.876 245.133,442.574 244.274,442.574L169.553,442.574C168.694,442.574 167.996,441.876 167.996,441.017L167.996,313.653C167.996,312.793 168.694,312.096 169.553,312.096L244.274,312.096C245.133,312.096 245.831,312.793 245.831,313.653Z" style="fill:none;stroke:rgb(232,230,222);stroke-width:0.52px;"/>
        <path d="M83.091,239.535L83.091,348.146C83.091,348.993 82.403,349.681 81.555,349.681L7.854,349.681C7.007,349.681 6.319,348.993 6.319,348.146L6.319,239.535C6.319,238.688 7.007,238 7.854,238L81.555,238C82.403,238 83.091,238.688 83.091,239.535Z" style="fill:none;stroke:rgb(232,230,222);stroke-width:0.52px;"/>
        <path d="M325.555,313.69L325.555,440.979C325.555,441.859 324.841,442.574 323.961,442.574L247.425,442.574C246.545,442.574 245.831,441.859 245.831,440.979L245.831,313.69C245.831,312.81 246.545,312.096 247.425,312.096L323.961,312.096C324.841,312.096 325.555,312.81 325.555,313.69Z" style="fill:none;stroke:rgb(232,230,222);stroke-width:0.52px;"/>
        <path d="M167.996,313.794L167.996,441.215C167.996,442.152 167.235,442.913 166.298,442.913L84.789,442.913C83.851,442.913 83.091,442.152 83.091,441.215L83.091,313.794C83.091,312.857 83.851,312.096 84.789,312.096L166.298,312.096C167.235,312.096 167.996,312.857 167.996,313.794Z" style="fill:none;stroke:rgb(232,230,222);stroke-width:0.52px;"/>
        <path d="M82.677,60.591L82.677,236.465C82.677,237.312 81.989,238 81.142,238L7.441,238C6.594,238 5.906,237.312 5.906,236.465L5.906,60.591C5.906,59.743 6.594,59.055 7.441,59.055L81.142,59.055C81.989,59.055 82.677,59.743 82.677,60.591Z" style="fill:none;stroke:rgb(232,230,222);stroke-width:0.52px;"/>
        <path d="M543,234.976L543,254.929C543,260.435 538.53,264.906 533.024,264.906L95.976,264.906C90.47,264.906 86,260.435 86,254.929L86,234.976C86,229.47 90.47,225 95.976,225L533.024,225C538.53,225 543,229.47 543,234.976Z" style="fill:none;stroke:rgb(232,230,222);stroke-width:0.52px;"/>
        <path d="M543,274.713L543,294.327C543,299.739 538.606,304.134 533.193,304.134L95.807,304.134C90.394,304.134 86,299.739 86,294.327L86,274.713C86,269.3 90.394,264.906 95.807,264.906L533.193,264.906C538.606,264.906 543,269.3 543,274.713Z" style="fill:rgb(58,61,67);"/>
    </g>
</svg>
